<svg width="63" height="56" viewBox="0 0 63 56" fill="none" xmlns="http://www.w3.org/2000/svg">
<path d="M28.3333 44.9083C31.7333 44.9083 34.5903 43.7514 36.9042 41.4375C39.2181 39.1236 40.375 36.2431 40.375 32.7958C40.375 29.3958 39.2181 26.5507 36.9042 24.2604C34.5903 21.9701 31.7333 20.825 28.3333 20.825C24.8861 20.825 22.0174 21.9701 19.7271 24.2604C17.4368 26.5507 16.2917 29.3958 16.2917 32.7958C16.2917 36.2431 17.4368 39.1236 19.7271 41.4375C22.0174 43.7514 24.8861 44.9083 28.3333 44.9083ZM4.25 55.25C3.11667 55.25 2.125 54.825 1.275 53.975C0.425 53.125 0 52.1333 0 51V14.6625C0 13.5764 0.425 12.5965 1.275 11.7229C2.125 10.8493 3.11667 10.4125 4.25 10.4125H14.6625L18.5583 5.7375C18.9361 5.21806 19.4083 4.84028 19.975 4.60417C20.5417 4.36806 21.1556 4.25 21.8167 4.25H37.5417C38.1556 4.25 38.6632 4.45069 39.0646 4.85208C39.466 5.25347 39.6667 5.76111 39.6667 6.375V14.6625H4.25V51H52.4167V23.1625H54.5417C54.825 23.1625 55.0965 23.2215 55.3563 23.3396C55.616 23.4576 55.8403 23.6111 56.0292 23.8C56.2181 23.9889 56.3715 24.2132 56.4896 24.4729C56.6076 24.7326 56.6667 25.0042 56.6667 25.2875V51C56.6667 52.1333 56.2299 53.125 55.3563 53.975C54.4826 54.825 53.5028 55.25 52.4167 55.25H4.25ZM52.4167 10.4125H48.45C47.8361 10.4125 47.3285 10.2118 46.9271 9.81042C46.5257 9.40903 46.325 8.90139 46.325 8.2875C46.325 7.67361 46.5257 7.16597 46.9271 6.76458C47.3285 6.36319 47.8361 6.1625 48.45 6.1625H52.4167V2.125C52.4167 1.51111 52.6174 1.00347 53.0188 0.602083C53.4201 0.200694 53.9278 0 54.5417 0C55.1556 0 55.6632 0.200694 56.0646 0.602083C56.466 1.00347 56.6667 1.51111 56.6667 2.125V6.1625H60.7042C61.3181 6.1625 61.8257 6.36319 62.2271 6.76458C62.6285 7.16597 62.8292 7.67361 62.8292 8.2875C62.8292 8.90139 62.6285 9.40903 62.2271 9.81042C61.8257 10.2118 61.3181 10.4125 60.7042 10.4125H56.6667V14.3792C56.6667 14.9931 56.466 15.5007 56.0646 15.9021C55.6632 16.3035 55.1556 16.5042 54.5417 16.5042C53.9278 16.5042 53.4201 16.3035 53.0188 15.9021C52.6174 15.5007 52.4167 14.9931 52.4167 14.3792V10.4125ZM4.25 14.6625V51V14.6625Z" fill="#40C057"/>
</svg>
